<svg width="179" height="84" viewBox="0 0 179 84" fill="none" xmlns="http://www.w3.org/2000/svg">
<path d="M0.000379738 -0.000661238L3.0975 11.1232L11.1825 2.87911L0.000379738 -0.000661238ZM77.0008 59.9993L76.5662 60.8999L77.0008 59.9993ZM178 82.9993C178.084 82.0028 178.084 82.0028 178.084 82.0028C178.083 82.0028 178.082 82.0027 178.082 82.0026C178.08 82.0025 178.077 82.0022 178.073 82.0019C178.066 82.0013 178.054 82.0003 178.039 81.999C178.008 81.9964 177.962 81.9924 177.901 81.9871C177.779 81.9764 177.597 81.9602 177.357 81.9383C176.878 81.8945 176.169 81.828 175.254 81.7369C173.423 81.5549 170.764 81.2751 167.46 80.8844C160.851 80.103 151.659 78.8783 141.332 77.1055C120.652 73.5554 95.5189 67.8234 77.4353 59.0986L76.5662 60.8999C94.9163 69.7533 120.283 75.5213 140.994 79.0767C151.363 80.8567 160.59 82.0861 167.225 82.8706C170.543 83.2629 173.214 83.544 175.056 83.7271C175.977 83.8187 176.691 83.8858 177.175 83.93C177.418 83.9521 177.602 83.9685 177.727 83.9794C177.789 83.9849 177.836 83.989 177.868 83.9917C177.884 83.993 177.896 83.9941 177.904 83.9948C177.908 83.9951 177.911 83.9954 177.913 83.9955C177.914 83.9956 177.915 83.9957 177.916 83.9958C177.916 83.9958 177.917 83.9958 178 82.9993ZM77.4353 59.0986C51.3455 46.5111 20.3281 18.2474 7.12009 5.58109L5.73578 7.02459C18.9236 19.6715 50.1517 48.1557 76.5662 60.8999L77.4353 59.0986Z" fill="#BEA57D"/>
</svg>
