<svg width="35" height="122" viewBox="0 0 35 122" fill="none" xmlns="http://www.w3.org/2000/svg">
<path d="M15.923 -0.000368639L13.9973 11.3849L24.8201 7.35996L15.923 -0.000368639ZM31.2176 87.1686L30.3091 86.7506L31.2176 87.1686ZM0.565836 120.765C1.03027 121.651 1.03064 121.651 1.03109 121.65C1.03134 121.65 1.03187 121.65 1.03237 121.65C1.03338 121.649 1.03469 121.649 1.03631 121.648C1.03953 121.646 1.04397 121.644 1.0496 121.641C1.06088 121.635 1.07693 121.626 1.09767 121.615C1.13913 121.593 1.19931 121.56 1.27729 121.517C1.43324 121.431 1.66044 121.303 1.95168 121.132C2.53411 120.792 3.37293 120.282 4.41043 119.599C6.48501 118.233 9.3566 116.172 12.5624 113.382C18.9709 107.806 26.7367 99.2977 32.126 87.5867L30.3091 86.7506C25.0698 98.1356 17.5097 106.426 11.2495 111.874C8.12095 114.596 5.32248 116.604 3.31059 117.929C2.30486 118.591 1.49634 119.082 0.942241 119.406C0.665213 119.568 0.451847 119.688 0.309304 119.767C0.238036 119.806 0.184475 119.835 0.149524 119.854C0.132048 119.863 0.119226 119.87 0.111165 119.875C0.107135 119.877 0.104298 119.878 0.102665 119.879C0.101852 119.879 0.101337 119.88 0.10112 119.88C0.101018 119.88 0.101086 119.88 0.101032 119.88C0.101175 119.88 0.101398 119.88 0.565836 120.765ZM32.126 87.5867C34.2397 82.9936 34.89 76.8367 34.6346 70.0046C34.3784 63.1502 33.2052 55.5069 31.5818 47.8711C28.3346 32.5979 23.2626 17.2481 20.0027 8.10099L18.1187 8.77241C21.3667 17.8857 26.4052 33.1401 29.6255 48.287C31.2358 55.8611 32.3857 63.3818 32.636 70.0793C32.8872 76.799 32.2275 82.5819 30.3091 86.7506L32.126 87.5867Z" fill="#BEA57D"/>
</svg>
