<svg width="162" height="125" viewBox="0 0 162 125" fill="none" xmlns="http://www.w3.org/2000/svg">
<path d="M5.13462 0.000379422L0.298061 10.4857L11.7969 9.4316L5.13462 0.000379422ZM60.8678 100.001L61.496 99.2226L60.8678 100.001ZM161.867 123.001C161.833 122.001 161.833 122.001 161.832 122.001C161.832 122.001 161.831 122.001 161.83 122.001C161.828 122.001 161.826 122.002 161.822 122.002C161.814 122.002 161.801 122.002 161.785 122.003C161.753 122.004 161.704 122.005 161.638 122.007C161.508 122.011 161.313 122.016 161.057 122.022C160.544 122.033 159.787 122.047 158.81 122.055C156.857 122.071 154.029 122.066 150.537 121.981C143.55 121.811 133.908 121.32 123.29 120.038C101.994 117.467 76.996 111.738 61.496 99.2226L60.2396 100.779C76.2134 113.676 101.715 119.448 123.05 122.023C133.748 123.315 143.455 123.809 150.488 123.98C154.005 124.066 156.855 124.071 158.827 124.055C159.813 124.046 160.58 124.033 161.101 124.021C161.362 124.016 161.561 124.01 161.696 124.006C161.763 124.005 161.814 124.003 161.849 124.002C161.866 124.001 161.879 124.001 161.888 124.001C161.892 124 161.896 124 161.898 124C161.899 124 161.9 124 161.901 124C161.902 124 161.902 124 161.867 123.001ZM61.496 99.2226C19.6799 65.4589 9.45009 26.0577 6.94554 8.81629L4.96631 9.1038C7.5191 26.6772 17.9173 66.6063 60.2396 100.779L61.496 99.2226Z" fill="#BEA57D"/>
</svg>
