<svg width="45" height="94" viewBox="0 0 45 94" fill="none" xmlns="http://www.w3.org/2000/svg">
<path d="M9.59225 -0.000315646L0.324164 6.88706L10.9229 11.4698L9.59225 -0.000315646ZM7.41402 57.0168L8.35513 56.6787L7.41402 57.0168ZM44.4584 92.9767C44.9483 92.1049 44.9483 92.1049 44.9483 92.1049C44.9481 92.1048 44.9479 92.1047 44.9475 92.1045C44.9468 92.1041 44.9457 92.1034 44.9441 92.1025C44.9408 92.1007 44.9358 92.0978 44.929 92.094C44.9153 92.0862 44.8945 92.0744 44.8667 92.0586C44.8111 92.0269 44.7276 91.9791 44.618 91.9157C44.3987 91.7888 44.0747 91.5995 43.6589 91.3512C42.8274 90.8546 41.6293 90.1228 40.1693 89.1849C37.2482 87.3084 33.2841 84.6108 29.111 81.3263C20.7174 74.7203 11.6606 65.8793 8.35513 56.6787L6.47291 57.3549C9.98426 67.1287 19.4496 76.2677 27.874 82.898C32.1099 86.2317 36.1288 88.9664 39.0883 90.8676C40.5687 91.8185 41.7854 92.5619 42.6336 93.0683C43.0577 93.3216 43.3897 93.5157 43.6165 93.6469C43.7299 93.7125 43.8171 93.7624 43.8763 93.7962C43.9059 93.813 43.9285 93.8259 43.944 93.8346C43.9517 93.839 43.9576 93.8423 43.9617 93.8446C43.9638 93.8458 43.9654 93.8467 43.9665 93.8473C43.9671 93.8476 43.9676 93.8479 43.9679 93.8481C43.9682 93.8483 43.9685 93.8485 44.4584 92.9767ZM8.35513 56.6787C0.662666 35.2668 3.7938 18.0684 6.96791 8.57969L5.07121 7.94521C1.79021 17.7535 -1.40554 35.4253 6.47291 57.3549L8.35513 56.6787Z" fill="#BEA57D"/>
</svg>
