<svg width="171" height="93" viewBox="0 0 171 93" fill="none" xmlns="http://www.w3.org/2000/svg">
<path d="M170.806 -0.000866829L160.157 4.46562L169.35 11.454L170.806 -0.000866829ZM69.806 90.9993L69.678 90.0076L69.806 90.9993ZM1.07326 78.4978C0.569349 79.3616 0.569753 79.3618 0.570269 79.3621C0.570593 79.3623 0.571229 79.3627 0.571878 79.3631C0.573183 79.3638 0.574945 79.3649 0.577158 79.3661C0.581591 79.3687 0.587843 79.3723 0.595918 79.377C0.612062 79.3863 0.63546 79.3997 0.666045 79.4171C0.727201 79.4519 0.817079 79.5026 0.935015 79.5679C1.17089 79.6986 1.51906 79.8879 1.97432 80.1261C2.8848 80.6025 4.22389 81.2745 5.95 82.0638C9.40175 83.642 14.404 85.6903 20.6237 87.5804C33.0593 91.3594 50.3893 94.5141 69.934 91.9911L69.678 90.0076C50.489 92.4846 33.4526 89.3886 21.2053 85.6668C15.0835 83.8065 10.1651 81.7919 6.78165 80.2449C5.09014 79.4715 3.78294 78.8152 2.90154 78.3541C2.46087 78.1235 2.1267 77.9417 1.90423 77.8184C1.79299 77.7568 1.70969 77.7098 1.65496 77.6787C1.62759 77.6631 1.60738 77.6515 1.59439 77.644C1.58789 77.6403 1.5832 77.6376 1.58034 77.6359C1.5789 77.6351 1.57792 77.6345 1.57739 77.6342C1.57712 77.6341 1.57708 77.634 1.57694 77.634C1.577 77.634 1.57718 77.6341 1.07326 78.4978ZM69.934 91.9911C77.9554 90.9557 86.9702 86.4005 96.1695 79.9459C105.39 73.4764 114.895 65.0275 123.907 56.0764C141.935 38.1726 158.074 18.1796 166.147 7.77856L164.568 6.55218C156.515 16.9264 140.436 36.8421 122.498 54.6573C113.528 63.5657 104.113 71.9289 95.0208 78.3087C85.9069 84.7034 77.2146 89.0347 69.678 90.0076L69.934 91.9911Z" fill="#BEA57D"/>
</svg>
