<svg width="15" height="16" viewBox="0 0 15 16" fill="none" xmlns="http://www.w3.org/2000/svg">
<path d="M13.3996 3.5L2.59933 3.5C2.48998 3.50035 2.3828 3.53056 2.28932 3.58738C2.19583 3.64421 2.11959 3.7255 2.0688 3.82251C2.01801 3.91951 1.99458 4.02856 2.00105 4.13791C2.00752 4.24726 2.04364 4.35277 2.10552 4.44308L7.50567 12.257C7.72948 12.581 8.26829 12.581 8.4927 12.257L13.8929 4.44308C13.9554 4.35296 13.992 4.24739 13.9988 4.13786C14.0057 4.02833 13.9824 3.91902 13.9315 3.82181C13.8807 3.7246 13.8042 3.6432 13.7105 3.58647C13.6167 3.52973 13.5092 3.49983 13.3996 3.5Z" fill="#831717"/>
</svg>
