<svg width="90" height="90" viewBox="0 0 90 90" fill="none" xmlns="http://www.w3.org/2000/svg">
<g clip-path="url(#clip0_145_3845)">
<path d="M90 45C90 69.5767 70.0766 89.5 45.5 89.5C20.9233 89.5 1 69.5767 1 45C1 20.4233 20.9233 0.5 45.5 0.5C70.0766 0.5 90 20.4233 90 45ZM18.2646 45C18.2646 60.0418 30.4582 72.2355 45.5 72.2355C60.5417 72.2355 72.7355 60.0418 72.7355 45C72.7355 29.9583 60.5417 17.7645 45.5 17.7645C30.4582 17.7645 18.2646 29.9583 18.2646 45Z" fill="white" fill-opacity="0.3"/>
<path d="M52.5 39.1316C39 42.1842 35.85 51.6016 32.73 59.4926L35.565 60.5L36.99 56.9895C37.71 57.249 38.46 57.4474 39 57.4474C55.5 57.4474 60 31.5 60 31.5C58.5001 34.5526 48 34.9342 40.5 36.4606C33 37.9869 30 44.4737 30 47.5264C30 50.579 32.625 53.25 32.625 53.25C37.5 39.1316 52.5 39.1316 52.5 39.1316Z" fill="white"/>
<path d="M69.2635 71.1881L71.4392 73.8157L70.5666 74.5L67 70.1925L67.6639 69.6719L71.7416 70.818L69.5608 68.1843L70.4334 67.5L74 71.8075L73.3361 72.3281L69.2635 71.1881Z" fill="white"/>
<path d="M59.237 75.3384C59.5556 74.5871 60.0997 74.0537 60.8694 73.7382C61.6389 73.4227 62.4011 73.4206 63.1559 73.732C63.9097 74.0554 64.4445 74.6018 64.7601 75.3709C65.0779 76.145 65.0799 76.9067 64.7664 77.656C64.4498 78.4123 63.9067 78.9482 63.1372 79.2638C62.3675 79.5792 61.6043 79.5787 60.8475 79.2624C60.0927 78.9511 59.5565 78.4084 59.2388 77.6342C58.921 76.86 58.9204 76.0947 59.237 75.3384ZM62.7119 74.7474C62.255 74.5564 61.781 74.5615 61.2899 74.7628C60.7988 74.9642 60.4576 75.2932 60.2665 75.7499C60.0724 76.2137 60.0791 76.6986 60.2868 77.2045C60.4945 77.7105 60.8304 78.0605 61.2945 78.2546C61.7586 78.4485 62.2336 78.4459 62.7198 78.2467C63.2058 78.0474 63.5459 77.7159 63.74 77.2521C63.9341 76.7882 63.9273 76.3034 63.7197 75.7974C63.512 75.2913 63.1761 74.9413 62.7119 74.7474Z" fill="white"/>
<path d="M51.351 78.9993L51.7115 82.3862L50.591 82.5L50 76.9478L50.8526 76.8612L53.6498 80.0086L53.2885 76.6138L54.409 76.5L55 82.0522L54.1474 82.1388L51.351 78.9993Z" fill="white"/>
<path d="M36.8601 78.7122L34.1008 77.7868L34.2459 77.3703C34.5146 76.599 34.9839 76.0586 35.6536 75.7491C36.3233 75.4397 37.0565 75.4185 37.8531 75.6857C38.7021 75.9705 39.313 76.4768 39.6856 77.2048C40.0513 77.9362 40.0979 78.6926 39.8257 79.4742C39.5516 80.2609 39.0444 80.8345 38.3043 81.195C37.5588 81.5537 36.7773 81.596 35.9597 81.3219C35.4514 81.1513 35.0243 80.8818 34.6787 80.5131C34.333 80.1445 34.1067 79.727 34 79.2605L35.1104 79.0471C35.1644 79.3121 35.3009 79.5589 35.5198 79.7873C35.7387 80.0158 36.008 80.1837 36.3276 80.2909C36.857 80.4684 37.3485 80.4437 37.8022 80.2169C38.2522 80.0003 38.5677 79.6323 38.7487 79.113C38.926 78.6039 38.9026 78.1252 38.6783 77.6767C38.4524 77.2334 38.0538 76.9159 37.4825 76.7243C37.0685 76.5854 36.6912 76.5594 36.3507 76.6462C36.0103 76.7331 35.7338 76.9217 35.5213 77.2123L37.1879 77.7712L36.8601 78.7122Z" fill="white"/>
<path d="M23.953 75.8696L23 75.1816L26.4028 70.5L27.3223 71.1637L25.1153 74.2001L28.0173 72.9807L28.1247 73.0583L27.8718 76.1795L30.0738 73.1499L31 73.8184L27.5972 78.5L26.6442 77.8122L26.9043 74.6247L23.953 75.8696Z" fill="white"/>
<path d="M19.3992 64.5284C20.2081 64.6399 20.8653 65.026 21.3708 65.6866C21.8764 66.3473 22.0773 67.0826 21.9735 67.8926C21.8576 68.7049 21.4695 69.3638 20.8088 69.8694C20.1438 70.3783 19.4085 70.5792 18.6029 70.4721C17.7896 70.3639 17.1303 69.9795 16.6247 69.3188C16.1191 68.6581 15.9204 67.9212 16.0286 67.1079C16.1324 66.2978 16.5168 65.6384 17.1818 65.1296C17.8467 64.6206 18.5858 64.4203 19.3992 64.5284ZM20.8767 67.7292C20.942 67.2382 20.8134 66.7818 20.4907 66.3602C20.1681 65.9386 19.7613 65.6952 19.2702 65.6298C18.7716 65.5635 18.3049 65.6966 17.8702 66.0293C17.4356 66.3619 17.1852 66.7776 17.1188 67.2763C17.0525 67.775 17.179 68.233 17.4983 68.6502C17.8176 69.0675 18.2266 69.3093 18.7253 69.3756C19.224 69.4419 19.6906 69.3088 20.1253 68.9762C20.5599 68.6436 20.8104 68.2279 20.8767 67.7292Z" fill="white"/>
<path d="M8.5 46.5C9.32843 46.5 10 45.8284 10 45C10 44.1716 9.32843 43.5 8.5 43.5C7.67157 43.5 7 44.1716 7 45C7 45.8284 7.67157 46.5 8.5 46.5Z" fill="white"/>
<path d="M80.5 46.5C81.3284 46.5 82 45.8284 82 45C82 44.1716 81.3284 43.5 80.5 43.5C79.6716 43.5 79 44.1716 79 45C79 45.8284 79.6716 46.5 80.5 46.5Z" fill="white"/>
<path d="M19.6694 20.6395L17.1928 18.3074L17.9399 17.5L22 21.3231L21.4316 21.9374L17.3248 21.355L19.8072 23.6926L19.0601 24.5L15 20.6769L15.5684 20.0626L19.6694 20.6395Z" fill="white"/>
<path d="M28.8953 15.2712C28.6828 16.059 28.2171 16.6618 27.4983 17.0795C26.7796 17.4974 26.0252 17.6038 25.2353 17.3987C24.4446 17.1815 23.8403 16.7137 23.4223 15.9951C23.0017 15.2718 22.8952 14.5176 23.1031 13.7327C23.3128 12.9402 23.7772 12.3351 24.4959 11.9172C25.2146 11.4995 25.9704 11.3954 26.763 11.6052C27.553 11.8102 28.1583 12.2743 28.5789 12.9976C28.9996 13.7209 29.1051 14.4787 28.8953 15.2712ZM25.5356 16.3323C26.0143 16.4589 26.4828 16.3889 26.9415 16.1222C27.4002 15.8556 27.6929 15.4831 27.8196 15.0046C27.9482 14.5186 27.8751 14.0393 27.6002 13.5666C27.3252 13.0938 26.9447 12.7932 26.4586 12.6645C25.9725 12.536 25.5025 12.6036 25.0486 12.8674C24.5946 13.1314 24.3033 13.5062 24.1746 13.9922C24.0459 14.4781 24.1191 14.9575 24.3941 15.4302C24.669 15.9029 25.0496 16.2037 25.5356 16.3323Z" fill="white"/>
<path d="M37.2799 11.3731L36.4033 7.78343L37.563 7.5L39 13.3848L38.1177 13.6004L34.7181 10.6184L35.5967 14.2166L34.4371 14.5L33 8.61525L33.8824 8.39959L37.2799 11.3731Z" fill="white"/>
<path d="M51.1248 9.28439L54 9.84979L53.9113 10.2835C53.747 11.0869 53.3518 11.6859 52.7257 12.0808C52.0996 12.4758 51.3715 12.5916 50.5415 12.4284C49.6568 12.2544 48.9799 11.8288 48.5105 11.1517C48.0477 10.4702 47.8996 9.72246 48.066 8.90849C48.2336 8.08916 48.6622 7.45206 49.3515 6.99717C50.0465 6.54337 50.8199 6.40023 51.6718 6.56775C52.2015 6.67192 52.6635 6.88531 53.0576 7.20792C53.4518 7.53053 53.7333 7.91734 53.9024 8.36837L52.8242 8.72452C52.7347 8.4674 52.5655 8.23916 52.3166 8.03981C52.0677 7.84046 51.7766 7.70802 51.4435 7.64252C50.892 7.53405 50.4053 7.62217 49.9835 7.90688C49.5639 8.18088 49.2988 8.58831 49.1883 9.12917C49.0799 9.65933 49.1675 10.1334 49.4513 10.5513C49.7361 10.9637 50.1762 11.2286 50.7714 11.3456C51.2029 11.4304 51.5824 11.4076 51.9102 11.2771C52.2379 11.1465 52.4883 10.9229 52.6609 10.6059L50.9244 10.2644L51.1248 9.28439Z" fill="white"/>
<path d="M63.9319 10.6946L65 11.2685L62.1526 16.5L61.1221 15.9463L62.9688 12.5533L60.1649 14.186L60.0446 14.1213L59.8807 10.9037L58.0381 14.2892L57 13.7315L59.8474 8.5L60.9156 9.07391L61.081 12.36L63.9319 10.6946Z" fill="white"/>
<path d="M69.9853 21.5C69.1683 21.4929 68.4667 21.1939 67.8804 20.603C67.2942 20.0122 67.0006 19.3082 67 18.4912C67.0109 17.6703 67.3119 16.9668 67.9027 16.3805C68.4975 15.7904 69.2014 15.4968 70.0146 15.5C70.8355 15.5033 71.5391 15.8003 72.1253 16.3912C72.7116 16.982 73.0032 17.6879 73 18.5088C73.0006 19.3259 72.7036 20.0295 72.1088 20.6196C71.5141 21.2097 70.8062 21.5032 69.9853 21.5ZM68.1093 18.513C68.1073 19.0086 68.2935 19.4449 68.6676 19.822C69.0417 20.1991 69.4766 20.3886 69.9722 20.3905C70.4756 20.3925 70.9217 20.2006 71.3104 19.8149C71.6992 19.4292 71.8945 18.9847 71.8965 18.4813C71.8984 17.9779 71.7142 17.5397 71.344 17.1664C70.9737 16.7933 70.5369 16.6057 70.0335 16.6037C69.5302 16.6017 69.084 16.7937 68.6954 17.1793C68.3066 17.565 68.1112 18.0096 68.1093 18.513Z" fill="white"/>
</g>
<defs>
<clipPath id="clip0_145_3845">
<rect width="90" height="89" fill="white" transform="translate(0 0.5)"/>
</clipPath>
</defs>
</svg>
