<svg width="90" height="90" viewBox="0 0 90 90" fill="none" xmlns="http://www.w3.org/2000/svg">
<path d="M89 44.5C89 69.0767 69.0766 89 44.5 89C19.9234 89 0 69.0767 0 44.5C0 19.9233 19.9234 0 44.5 0C69.0766 0 89 19.9233 89 44.5ZM17.2645 44.5C17.2645 59.5417 29.4583 71.7355 44.5 71.7355C59.5417 71.7355 71.7355 59.5417 71.7355 44.5C71.7355 29.4582 59.5417 17.2646 44.5 17.2646C29.4583 17.2646 17.2645 29.4582 17.2645 44.5Z" fill="white" fill-opacity="0.3"/>
<path d="M59.915 51.1285V51.1358C59.4458 52.6268 58.5916 54.0067 57.4532 55.1287C55.5606 56.9816 53.0447 58 50.3831 58H42.69C41.8439 58 41.1514 57.3136 41.1514 56.4722C41.1514 55.6306 41.8439 54.9442 42.69 54.9442H48.0752C48.4983 54.9442 48.8445 54.6121 48.8445 54.2061C48.8445 51.2835 51.2603 48.9067 54.2297 48.9067C54.6527 48.9067 54.9989 48.5745 54.9989 48.1686C54.9989 47.7554 54.6527 47.4305 54.2297 47.4305C50.6678 47.4305 47.7289 50.0728 47.3444 53.4681H42.69C41.2514 53.4681 40.059 54.4348 39.7207 55.734H32.0507C31.189 55.734 30.4427 55.0994 30.3812 54.3168C30.3503 53.874 30.5196 53.4383 30.8352 53.1211C31.1275 52.8334 31.5121 52.6785 31.9199 52.6785H36.5357C36.9588 52.6785 37.305 52.3463 37.305 51.9404V51.2392C37.3435 50.7005 37.4743 47.9844 36.1126 47.0838C35.128 46.4344 33.974 46.3605 33.1123 46.9066C32.6199 47.209 32.1198 47.497 31.6122 47.7774C31.0967 48.0726 30.6121 48.2868 30.1275 48.4417C29.1734 48.7441 28.2427 48.8404 27.435 48.7C26.4732 48.5375 25.704 48.0209 25.3193 47.2976C24.3117 45.3935 25.7734 42.3303 28.512 40.6031C29.3351 40.0792 30.2199 39.7025 31.0816 39.5328C32.7586 39.1786 33.9974 37.6579 34.0281 35.9162C34.0511 34.8756 34.2279 33.7389 34.5511 32.6096C35.6206 28.7643 37.7362 26.7639 38.7668 27.0222C39.4437 27.1995 40.1285 28.4836 40.0052 30.8972C39.9977 30.9932 39.9901 31.0966 39.9822 31.2C39.9208 32.0637 39.759 32.9567 39.5052 33.8721C38.9976 35.6951 38.1514 37.3483 37.1973 38.4041C36.9205 38.7138 36.9514 39.1787 37.2742 39.4443C37.4205 39.5623 37.5974 39.6289 37.7818 39.6289C37.9896 39.6289 38.205 39.5402 38.3588 39.3705C39.4743 38.1306 40.4129 36.3147 40.9899 34.2556C41.2282 33.4069 41.3976 32.5652 41.4824 31.7461C43.4441 30.2402 45.1906 29.8198 45.7596 30.2996C45.7675 30.3144 45.7829 30.3217 45.7984 30.3365C46.1367 30.6907 46.1212 31.5323 45.7599 32.5287C45.6751 32.7501 45.5751 32.9788 45.4752 33.2002C44.9521 34.2925 44.1364 35.4294 43.1363 36.4627L42.3746 37.1935C41.6438 37.8505 40.8974 38.3893 40.1511 38.7952C39.782 38.9945 39.6511 39.4447 39.8589 39.7988C40.0667 40.153 40.5358 40.2786 40.9049 40.0793C41.7358 39.6216 42.5589 39.0387 43.3743 38.3151C43.4052 38.3151 43.4282 38.3299 43.4588 38.3299H50.3826C55.3216 38.3299 59.5756 41.9538 60.2833 46.7589C60.353 47.2387 60.3839 47.7036 60.3839 48.1686C60.3839 49.1726 60.2303 50.1689 59.915 51.1285ZM62.692 51.3572C62.2844 51.3572 61.8918 51.2537 61.5381 51.0619C61.7919 50.1172 61.9227 49.1429 61.9227 48.1685C61.9227 47.8067 61.9073 47.4453 61.8688 47.0762C62.1305 46.9804 62.4074 46.9286 62.692 46.9286C63.9615 46.9286 65 47.925 65 49.1429C65 50.3608 63.9615 51.3572 62.692 51.3572Z" fill="white"/>
<path d="M72.5865 64.2463C73.0957 63.5539 73.7498 63.1492 74.5486 63.0324C75.3398 62.9166 76.0759 63.111 76.7572 63.6155C77.4428 64.1233 77.8449 64.7719 77.9635 65.5615C78.0877 66.3619 77.8951 67.1083 77.3858 67.8007C77.0776 68.2197 76.6949 68.5323 76.2376 68.7387C75.7815 68.9527 75.3135 69.0353 74.8335 68.9863L74.9576 67.8623C75.2485 67.9006 75.529 67.8562 75.7989 67.7292C76.0733 67.6053 76.3077 67.4111 76.5024 67.1465C76.8332 66.6966 76.9603 66.2286 76.8833 65.7425C76.7987 65.2575 76.5345 64.8506 76.0906 64.5218C75.6511 64.1963 75.1879 64.0645 74.7012 64.1264C74.2156 64.196 73.8073 64.4556 73.4764 64.9055C73.2818 65.17 73.1638 65.4506 73.1224 65.7469C73.0821 66.0509 73.1225 66.3328 73.2435 66.5928L72.2096 67.0431C72.0216 66.5973 71.9601 66.1225 72.025 65.6188C72.0911 65.1228 72.2783 64.6653 72.5865 64.2463Z" fill="white"/>
<path d="M67 70.7734L67.9005 69.9981L70.0644 70.6798L70.699 70.1335L69.387 68.7181L70.221 68L74 72.0773L72.308 73.5342C71.9171 73.8708 71.4624 74.0249 70.9437 73.9967C70.425 73.9686 69.9929 73.7681 69.6474 73.3953C69.4134 73.1428 69.2703 72.8438 69.2177 72.498C69.1689 72.156 69.2169 71.8249 69.3619 71.5046L67 70.7734ZM71.6115 72.7828L72.4697 72.044L71.3522 70.8383L70.494 71.5771C70.3368 71.7125 70.2559 71.8868 70.251 72.1005C70.2498 72.318 70.3266 72.5103 70.4813 72.6773C70.6361 72.8442 70.8238 72.9374 71.0447 72.9567C71.2654 72.9761 71.4544 72.9182 71.6115 72.7828Z" fill="white"/>
<path d="M63.1743 72.3388C63.7224 72.041 64.263 71.9395 64.7962 72.0344C65.3292 72.1292 65.7487 72.4171 66.0543 72.8977L68 75.9571L67.0373 76.4802L65.137 73.4923C64.9828 73.2498 64.7867 73.1 64.5487 73.0429C64.3087 72.9926 64.0365 73.0503 63.732 73.2157C63.4275 73.3812 63.2429 73.5718 63.1784 73.7875C63.1119 74.0101 63.1559 74.2426 63.31 74.4851L65.2102 77.473L64.2406 78L62.2949 74.9406C61.9892 74.4599 61.9212 73.9812 62.0907 73.5045C62.2603 73.0278 62.6215 72.6392 63.1743 72.3388Z" fill="white"/>
<path d="M58.9099 77.3785L58.495 76.2774L56.3488 77.0289L56 76.1031L59.1501 75L61 79.9097L57.8862 81L57.5374 80.0742L59.6472 79.3354L59.2534 78.2904L57.3255 78.9655L56.982 78.0537L58.9099 77.3785Z" fill="white"/>
<path d="M53.9699 83L53.1772 78.3045L51.1842 78.7171L51 77.626L54.023 77L55 82.7867L53.9699 83Z" fill="white"/>
<path d="M49 83.8947L45.0246 84L45 82.8812L46.4589 82.8425L46.3532 78.0282L47.4185 78L47.5242 82.8144L48.9754 82.776L49 83.8947Z" fill="white"/>
<path d="M39.2662 83.4483L38 83.2612L40.4724 80.1641L40.8076 78L41.9196 78.1643L41.5844 80.3284L43 84L41.7338 83.8129L40.8586 81.3158L39.2662 83.4483Z" fill="white"/>
<path d="M33.3033 78L36 79.0142L35.6966 80L33 78.9858L33.3033 78Z" fill="white"/>
<path d="M27 78.5612L27.4444 77.708L29.215 78.6717L29.7739 77.5986L28.0539 76.6625L28.4983 75.8091L30.2183 76.7454L31.1273 75L32 75.4749L29.6432 80L27 78.5612Z" fill="white"/>
<path d="M23.614 70L24.5606 70.733L24.242 72.9464L24.909 73.463L26.1233 71.9433L27 72.6222L23.502 77L21.7232 75.6225C21.3124 75.3043 21.0763 74.892 21.0149 74.3854C20.9534 73.8789 21.0826 73.4255 21.4024 73.0252C21.619 72.7543 21.8989 72.5627 22.2421 72.4505C22.5821 72.3426 22.9278 72.3303 23.2795 72.4136L23.614 70ZM22.3679 74.8157L23.2699 75.5143L24.3043 74.2197L23.4023 73.5211C23.2371 73.3932 23.0453 73.3459 22.8267 73.3792C22.6049 73.4166 22.4224 73.5249 22.2791 73.7042C22.1359 73.8835 22.0735 74.0816 22.0921 74.2985C22.1108 74.5154 22.2027 74.6878 22.3679 74.8157Z" fill="white"/>
<path d="M19.7145 69.1361L20.5849 68.341L19.124 66.6685L19.8557 66L22 68.4548L18.1195 72L16 69.5735L16.7318 68.905L18.1679 70.5492L18.9939 69.7945L17.6816 68.2922L18.4022 67.6338L19.7145 69.1361Z" fill="white"/>
<path d="M15.6744 65.2728L16.6443 64.5919L15.4897 62.5725L16.3052 62L18 64.9642L13.6752 68L12 65.07L12.8155 64.4976L13.9506 66.4828L14.8712 65.8366L13.8339 64.0225L14.6371 63.4587L15.6744 65.2728Z" fill="white"/>
<path d="M17.5535 28.5411C17.1046 29.2758 16.4871 29.7354 15.7011 29.9202C14.9227 30.1031 14.1729 29.9717 13.4516 29.526C12.7257 29.0775 12.2704 28.4641 12.0857 27.686C11.8945 26.8975 12.0233 26.1359 12.4722 25.4013C12.7439 24.9568 13.0988 24.612 13.537 24.3672C13.9733 24.1147 14.4326 23.9924 14.9149 24.0004L14.8861 25.1331C14.5931 25.1197 14.3174 25.1879 14.0592 25.3377C13.7963 25.4847 13.5791 25.6985 13.4076 25.9793C13.1158 26.4565 13.0289 26.9346 13.1465 27.4134C13.2717 27.8903 13.5693 28.2741 14.0392 28.5645C14.5046 28.852 14.9771 28.9441 15.4569 28.841C15.9348 28.7302 16.3196 28.4362 16.6113 27.9589C16.7828 27.6781 16.8767 27.3881 16.893 27.0888C16.9075 26.7819 16.8434 26.5038 16.7009 26.2545L17.6929 25.717C17.9178 26.146 18.0193 26.6147 17.997 27.1231C17.9729 27.624 17.8252 28.0966 17.5535 28.5411Z" fill="white"/>
<path d="M23 20.9228L22.1836 21.783L19.9948 21.2784L19.4196 21.8845L20.8359 23.2033L20.0798 24L16 20.2011L17.534 18.5846C17.8883 18.2113 18.3218 18.0168 18.8343 18.001C19.3469 17.9853 19.7897 18.1512 20.1628 18.4985C20.4153 18.7337 20.5828 19.0237 20.6652 19.3688C20.7439 19.7102 20.7261 20.049 20.6121 20.385L23 20.9228ZM18.2859 19.2847L17.5079 20.1045L18.7144 21.2279L19.4924 20.4081C19.6348 20.258 19.6989 20.0748 19.6846 19.8585C19.6664 19.6385 19.5738 19.4507 19.4066 19.2952C19.2396 19.1396 19.0466 19.0615 18.8278 19.0607C18.609 19.0599 18.4283 19.1346 18.2859 19.2847Z" fill="white"/>
<path d="M26.0126 18.5535C25.5096 18.8953 24.9954 19.0409 24.4701 18.9902C23.9449 18.9394 23.5116 18.6871 23.1706 18.2333L21 15.3445L21.8836 14.7442L24.0036 17.5654C24.1757 17.7944 24.3796 17.9275 24.6155 17.9649C24.8527 17.9953 25.111 17.9154 25.3905 17.7255C25.67 17.5356 25.8309 17.3305 25.8732 17.1103C25.9169 16.8831 25.8526 16.655 25.6806 16.426L23.5606 13.6047L24.4507 13L26.6213 15.8887C26.9623 16.3426 27.0731 16.814 26.9534 17.3029C26.8336 17.7919 26.52 18.2088 26.0126 18.5535Z" fill="white"/>
<path d="M29.1702 12.6432L29.6519 13.6905L31.595 12.7737L32 13.6543L29.148 15L27 10.3301L29.8191 9L30.2242 9.8806L28.314 10.7819L28.7712 11.7759L30.5167 10.9523L30.9156 11.8196L29.1702 12.6432Z" fill="white"/>
<path d="M34.1494 8L35.4694 12.6148L37.6933 12.0096L38 13.082L34.6266 14L33 8.31279L34.1494 8Z" fill="white"/>
<path d="M39 6.45688L42.8915 6L43 7.07673L41.5718 7.24439L42.0386 11.8775L40.9958 12L40.529 7.36681L39.1084 7.5336L39 6.45688Z" fill="white"/>
<path d="M48.7338 6.24599L50 6.32942L47.8282 9.73837L47.6852 12L46.5732 11.9267L46.7162 9.66514L45 6L46.2662 6.08342L47.347 8.58368L48.7338 6.24599Z" fill="white"/>
<path d="M54.7749 11L52 10.1483L52.2251 9L55 9.85166L54.7749 11Z" fill="white"/>
<path d="M61 9.1789L60.6063 10.0483L58.6556 9.25868L58.1605 10.3521L60.0554 11.1192L59.6616 11.9887L57.7667 11.2215L56.9613 13L56 12.6108L58.0879 8L61 9.1789Z" fill="white"/>
<path d="M64.7024 18L63.6674 17.3506L63.7891 15.1125L63.0597 14.6548L61.9586 16.2783L61 15.6769L64.172 11L66.117 12.2204C66.5662 12.5022 66.8455 12.8934 66.955 13.3939C67.0644 13.8944 66.9742 14.3584 66.6842 14.786C66.4879 15.0756 66.2194 15.2912 65.8789 15.4331C65.5414 15.5707 65.1891 15.6131 64.8221 15.5606L64.7024 18ZM65.5324 13.0823L64.5461 12.4634L63.608 13.8464L64.5944 14.4653C64.7751 14.5786 64.9755 14.6092 65.1957 14.5569C65.4191 14.5001 65.5957 14.3761 65.7256 14.1845C65.8555 13.993 65.9009 13.7898 65.8619 13.5748C65.8229 13.3598 65.7131 13.1956 65.5324 13.0823Z" fill="white"/>
<path d="M69.2633 17.9306L68.4479 18.7816L70.0777 20.2845L69.3922 21L67 18.7939L70.6354 15L73 17.1806L72.3144 17.896L70.7122 16.4185L69.9384 17.2261L71.4025 18.5762L70.7273 19.2808L69.2633 17.9306Z" fill="white"/>
<path d="M72.304 21.8035L71.3877 22.5483L72.7074 24.3738L71.9371 25L70 22.3204L74.0854 19L76 21.6486L75.2296 22.2747L73.9323 20.4801L73.0627 21.1869L74.2483 22.8268L73.4895 23.4434L72.304 21.8035Z" fill="white"/>
<path d="M7.5 47C8.32843 47 9 46.3284 9 45.5C9 44.6716 8.32843 44 7.5 44C6.67157 44 6 44.6716 6 45.5C6 46.3284 6.67157 47 7.5 47Z" fill="white"/>
<path d="M79.5 47C80.3284 47 81 46.3284 81 45.5C81 44.6716 80.3284 44 79.5 44C78.6716 44 78 44.6716 78 45.5C78 46.3284 78.6716 47 79.5 47Z" fill="white"/>
</svg>
