<svg width="91" height="169" viewBox="0 0 91 169" fill="none" xmlns="http://www.w3.org/2000/svg">
<path d="M84.3289 0.000297453L78.7736 10.1231L90.3179 9.87277L84.3289 0.000297453ZM61.9028 134.086L61.1853 133.39L61.9028 134.086ZM0.321695 167.075C0.464792 168.065 0.465254 168.064 0.465846 168.064C0.466217 168.064 0.466945 168.064 0.467688 168.064C0.469181 168.064 0.471197 168.064 0.473728 168.063C0.478798 168.063 0.485942 168.061 0.495159 168.06C0.513584 168.057 0.540252 168.053 0.575021 168.048C0.644542 168.037 0.746433 168.021 0.87941 167.998C1.14537 167.954 1.53573 167.886 2.04034 167.789C3.0495 167.595 4.51589 167.288 6.35818 166.831C10.0422 165.918 15.2325 164.409 21.2773 162.017C33.3631 157.236 48.8915 148.921 62.6202 134.783L61.1853 133.39C47.7066 147.27 32.4445 155.449 20.5416 160.158C14.592 162.511 9.48843 163.995 5.8772 164.89C4.07185 165.337 2.64024 165.637 1.66331 165.825C1.17487 165.918 0.800172 165.984 0.549329 166.026C0.423903 166.047 0.329459 166.062 0.267244 166.072C0.236137 166.076 0.213094 166.08 0.198265 166.082C0.190851 166.083 0.185495 166.084 0.182213 166.085C0.180569 166.085 0.179447 166.085 0.178841 166.085C0.178538 166.085 0.178484 166.085 0.178333 166.085C0.178401 166.085 0.178598 166.085 0.321695 167.075ZM62.6202 134.783C68.2546 128.98 72.4761 119.805 75.6601 109.027C78.8514 98.225 81.0332 85.6967 82.5175 73.0812C85.4863 47.8482 85.6771 22.1546 85.5241 8.98862L83.5242 9.01186C83.6769 22.1439 83.4853 47.7392 80.5312 72.8475C79.054 85.4027 76.8891 97.8082 73.742 108.461C70.5877 119.138 66.4792 127.938 61.1853 133.39L62.6202 134.783Z" fill="#BEA57D"/>
</svg>
