<svg width="90" height="90" viewBox="0 0 90 90" fill="none" xmlns="http://www.w3.org/2000/svg">
<path d="M89 44.5C89 69.0767 69.0766 89 44.5 89C19.9233 89 0 69.0767 0 44.5C0 19.9233 19.9233 0 44.5 0C69.0766 0 89 19.9233 89 44.5ZM17.2646 44.5C17.2646 59.5417 29.4582 71.7355 44.5 71.7355C59.5417 71.7355 71.7355 59.5417 71.7355 44.5C71.7355 29.4582 59.5417 17.2646 44.5 17.2646C29.4582 17.2646 17.2646 29.4582 17.2646 44.5Z" fill="white" fill-opacity="0.3"/>
<path d="M77.0513 58.0988L74 58.8977L74.443 57.7647L77.2369 57.0019L75.1397 55.9834L75.5242 55L80 57.1737L79.6155 58.157L77.6397 57.1974L78.9467 59.8671L78.5037 61L77.0513 58.0988Z" fill="white"/>
<path d="M71.0409 63.9411C70.9226 63.271 71.0608 62.6511 71.4554 62.0812C71.85 61.5113 72.3817 61.1641 73.0504 61.0394C73.724 60.9236 74.3457 61.0631 74.9153 61.458C75.4887 61.8553 75.8358 62.3872 75.9568 63.0536C76.0788 63.7263 75.9425 64.3475 75.5478 64.9174C75.1532 65.4872 74.6197 65.8332 73.9472 65.9553C73.2785 66.08 72.6575 65.9437 72.084 65.5463C71.5107 65.1489 71.163 64.6138 71.0409 63.9411ZM73.2011 61.951C72.7951 62.0247 72.4662 62.2434 72.2144 62.6071C71.9625 62.9708 71.8734 63.3557 71.9471 63.7619C72.0219 64.1744 72.2467 64.5104 72.6215 64.7702C72.9962 65.0299 73.3898 65.1224 73.8021 65.0475C74.2146 64.9726 74.5453 64.7552 74.7945 64.3953C75.0438 64.0355 75.131 63.6492 75.0562 63.2367C74.9813 62.8242 74.7565 62.4881 74.3818 62.2284C74.007 61.9686 73.6135 61.8762 73.2011 61.951Z" fill="white"/>
<path d="M67.6642 67.6928C68.018 67.3404 68.3948 67.1226 68.7944 67.0396C69.1939 66.9565 69.5823 67.0043 69.9595 67.183L69.7015 68.1483C69.1986 67.9168 68.741 68.0063 68.3287 68.4169C68.1363 68.6085 68.0259 68.787 67.9973 68.9523C67.9687 69.1175 68.012 69.2593 68.1271 69.3774C68.2522 69.5059 68.4053 69.5485 68.5864 69.5051C68.7708 69.4652 69.0497 69.3415 69.423 69.134C69.8338 68.9166 70.1928 68.7814 70.5001 68.7286C70.8926 68.6731 71.2496 68.8103 71.571 69.1404C71.8958 69.4739 72.0362 69.8509 71.9921 70.2712C71.9547 70.6985 71.7712 71.0764 71.4413 71.4049C71.1528 71.6922 70.8274 71.8759 70.4653 71.9559C70.1033 72.0358 69.7335 72.0071 69.3561 71.8697L69.6139 70.9252C70.0627 71.0941 70.4452 71.0213 70.7612 70.7065C70.9055 70.5627 70.9869 70.4134 71.0051 70.2584C71.0267 70.1068 70.985 69.9772 70.8801 69.8695C70.7685 69.7548 70.6308 69.7072 70.4669 69.7266C70.2928 69.7563 70.0363 69.8612 69.6973 70.0413L69.3688 70.2043C69.3105 70.2348 69.2045 70.2823 69.0506 70.3466C68.9103 70.4111 68.7991 70.4499 68.7172 70.463C68.4474 70.5264 68.2291 70.5317 68.0624 70.4786C67.831 70.4216 67.6188 70.2941 67.426 70.0961C67.0978 69.759 66.9592 69.3701 67.0103 68.929C67.0614 68.4881 67.2794 68.076 67.6642 67.6928Z" fill="white"/>
<path d="M64.5248 73.9098L65.6568 75.4687L64.8502 76L62 72.0746L62.8066 71.5434L63.9874 73.1696L65.5182 72.1613L64.3374 70.5351L65.1499 70L68 73.9253L67.1876 74.4605L66.0556 72.9016L64.5248 73.9098Z" fill="white"/>
<path d="M60.8316 75.3574L60.3511 74.3088L58.4039 75.222L58 74.3405L60.8582 73L63 77.675L60.1748 79L59.7709 78.1184L61.6852 77.2207L61.2293 76.2256L59.4801 77.0459L59.0823 76.1777L60.8316 75.3574Z" fill="white"/>
<path d="M52 75.902L53.0369 75.6499L54.4662 76.9631L55.1969 76.7854L54.7487 75.2336L55.7091 75L57 79.4704L55.0515 79.9443C54.6015 80.0537 54.177 80.002 53.7779 79.7892C53.3788 79.5764 53.1203 79.2657 53.0022 78.8569C52.9223 78.5802 52.9337 78.3017 53.0366 78.0216C53.1406 77.7457 53.3169 77.5137 53.5654 77.3257L52 75.902ZM54.8137 79.1204L55.8018 78.88L55.4201 77.5581L54.4319 77.7984C54.2509 77.8425 54.114 77.9441 54.021 78.1034C53.9292 78.267 53.9097 78.4403 53.9625 78.6234C54.0155 78.8065 54.1253 78.9461 54.292 79.0422C54.4588 79.1383 54.6327 79.1644 54.8137 79.1204Z" fill="white"/>
<path d="M33.4169 78.0566L32.5062 75L33.5217 75.3756L34.3829 78.1721L35.1185 75.966L36 76.292L34.4299 81L33.5485 80.674L34.2416 78.5958L32.0155 80.1072L31 79.7317L33.4169 78.0566Z" fill="white"/>
<path d="M26.8742 73.0823C27.5333 72.9136 28.1618 73.0043 28.7599 73.3543C29.3578 73.7044 29.7444 74.2079 29.9195 74.865C30.086 75.5276 29.9942 76.1577 29.6439 76.7553C29.2914 77.357 28.7875 77.7433 28.1324 77.9144C27.4711 78.0871 26.8414 77.9984 26.2434 77.6484C25.6453 77.2982 25.2599 76.7927 25.0871 76.1318C24.9121 75.4748 25.0008 74.8454 25.3534 74.2438C25.706 73.6421 26.2129 73.255 26.8742 73.0823ZM29.0221 75.0843C28.9178 74.6852 28.6748 74.374 28.2932 74.1506C27.9115 73.9272 27.521 73.8676 27.1218 73.9719C26.7162 74.0778 26.3983 74.3273 26.1678 74.7205C25.9374 75.1137 25.8751 75.513 25.9811 75.9183C26.087 76.3236 26.3288 76.6368 26.7066 76.8579C27.0843 77.0791 27.4759 77.1366 27.8814 77.0307C28.2869 76.9249 28.6049 76.6753 28.8354 76.282C29.0658 75.8888 29.1281 75.4896 29.0221 75.0843Z" fill="white"/>
<path d="M24.1792 69.5549C24.5627 69.8775 24.8117 70.2323 24.9262 70.6194C25.0407 71.0064 25.0219 71.3919 24.8699 71.7759L23.8738 71.5921C24.0697 71.0806 23.9442 70.6369 23.4975 70.2612C23.289 70.0857 23.1001 69.9901 22.9307 69.9739C22.7613 69.9578 22.6213 70.0107 22.5105 70.1324C22.3901 70.2649 22.3587 70.4185 22.4164 70.5935C22.4709 70.7721 22.6173 71.0374 22.8556 71.3895C23.1068 71.7779 23.2709 72.1213 23.3478 72.4198C23.4338 72.8019 23.3223 73.163 23.0129 73.5031C22.7002 73.8468 22.3297 74.0122 21.9011 73.9993C21.4661 73.9936 21.0699 73.8404 20.7125 73.5397C20.3998 73.2767 20.1891 72.9699 20.0807 72.6195C19.9722 72.2692 19.9731 71.9034 20.0833 71.5221L21.0583 71.7073C20.9217 72.161 21.0246 72.532 21.3671 72.82C21.5234 72.9516 21.6807 73.0207 21.8389 73.0274C21.9938 73.0377 22.1218 72.9873 22.2227 72.8763C22.3302 72.7582 22.3678 72.6193 22.3358 72.4595C22.2924 72.2903 22.1668 72.0456 21.9587 71.7252L21.7688 71.4138C21.7335 71.3588 21.6774 71.2579 21.6006 71.1112C21.5248 70.9778 21.477 70.8713 21.4575 70.7917C21.3727 70.5308 21.3508 70.3164 21.3918 70.1486C21.4317 69.9169 21.5446 69.6989 21.7302 69.4949C22.0461 69.1476 22.429 68.983 22.8789 69.0014C23.3289 69.0196 23.7623 69.2041 24.1792 69.5549Z" fill="white"/>
<path d="M17.0602 66.6043L15.5855 67.8271L15 67.0791L18.7134 64L19.299 64.748L17.7605 66.0236L18.8717 67.4431L20.4102 66.1675L21 66.9209L17.2866 70L16.6968 69.2466L18.1715 68.0238L17.0602 66.6043Z" fill="white"/>
<path d="M15.6603 62.7717L16.665 62.2413L15.6172 60.4459L16.4619 60L18 62.6352L13.5203 65L12 62.3952L12.8448 61.9492L13.8749 63.7141L14.8284 63.2108L13.8871 61.598L14.719 61.1589L15.6603 62.7717Z" fill="white"/>
<path d="M12.8663 54L13.1833 54.962L11.9849 56.4134L12.2083 57.0913L13.7065 56.5501L14 57.4411L9.684 59L9.08846 57.1923C8.95099 56.7748 8.97372 56.3692 9.15683 55.9755C9.33993 55.5819 9.62882 55.3139 10.0234 55.1713C10.2906 55.0748 10.5655 55.0647 10.8481 55.1408C11.1267 55.2183 11.3667 55.3676 11.5683 55.5886L12.8663 54ZM9.88386 56.905L10.1859 57.8217L11.4621 57.3608L11.1601 56.444C11.1049 56.2761 10.9957 56.1542 10.8327 56.0782C10.6656 56.0038 10.4937 55.9985 10.3169 56.0622C10.1401 56.1261 10.01 56.2406 9.92634 56.4057C9.84271 56.5706 9.82861 56.7372 9.88386 56.905Z" fill="white"/>
<path d="M11.9453 32.4172L15 31.5994L14.5992 32.5879L11.8036 33.3635L13.969 34.1421L13.6212 35L9 33.3385L9.34782 32.4805L11.3878 33.214L9.95278 30.9885L10.3535 30L11.9453 32.4172Z" fill="white"/>
<path d="M16.9359 25.9479C17.0845 26.6119 16.9747 27.2374 16.6066 27.8245C16.2383 28.4116 15.7232 28.7827 15.0611 28.9376C14.3936 29.0839 13.7665 28.9729 13.1796 28.6045C12.5889 28.2337 12.218 27.7183 12.067 27.0582C11.9145 26.3919 12.0224 25.7652 12.3906 25.1781C12.7587 24.5909 13.2758 24.2211 13.9418 24.0685C14.604 23.9136 15.2304 24.0214 15.8211 24.3923C16.4118 24.763 16.7834 25.2816 16.9359 25.9479ZM14.8691 28.034C15.2713 27.9418 15.5897 27.7085 15.8247 27.3337C16.0597 26.9591 16.1311 26.5706 16.0391 26.1682C15.9456 25.7596 15.7057 25.4342 15.3197 25.1918C14.9336 24.9495 14.5364 24.8751 14.128 24.9686C13.7196 25.0622 13.3991 25.2944 13.1666 25.6652C12.934 26.0361 12.8645 26.4257 12.958 26.8344C13.0515 27.243 13.2913 27.5684 13.6774 27.8108C14.0635 28.0531 14.4607 28.1275 14.8691 28.034Z" fill="white"/>
<path d="M20.4077 23.2254C20.0741 23.5979 19.7116 23.8361 19.3201 23.9394C18.9285 24.0429 18.5419 24.0138 18.1602 23.8522L18.3699 22.8666C18.8785 23.0752 19.3272 22.9624 19.7158 22.5282C19.8972 22.3256 19.9981 22.1404 20.0185 21.9723C20.0389 21.8043 19.9894 21.6636 19.87 21.5503C19.74 21.4268 19.5865 21.3915 19.4093 21.4442C19.2286 21.4935 18.9586 21.6319 18.5989 21.8594C18.2026 22.0988 17.8537 22.2527 17.552 22.321C17.1662 22.3963 16.8063 22.2756 16.4726 21.9588C16.1353 21.6385 15.9786 21.2655 16.0024 20.8397C16.0191 20.4072 16.183 20.0173 16.4939 19.67C16.7659 19.3661 17.0793 19.1649 17.4337 19.0666C17.7883 18.9682 18.1556 18.9789 18.5357 19.0988L18.3252 20.0635C17.873 19.9152 17.4979 20.0075 17.2 20.3404C17.0639 20.4923 16.9906 20.6468 16.9799 20.804C16.9657 20.9578 17.013 21.0864 17.1219 21.1898C17.2378 21.2999 17.3764 21.3412 17.5376 21.3135C17.7085 21.275 17.9575 21.1567 18.2845 20.9584L18.6019 20.778C18.6581 20.7443 18.7608 20.6913 18.9102 20.6188C19.0459 20.5469 19.154 20.5024 19.2345 20.4851C19.4986 20.4079 19.7144 20.3919 19.8819 20.4371C20.1136 20.4832 20.3296 20.6012 20.5299 20.7913C20.8706 21.1149 21.0261 21.5001 20.9964 21.9471C20.9667 22.3941 20.7705 22.8201 20.4077 23.2254Z" fill="white"/>
<path d="M23.4233 16.0707L22.2319 14.5665L23.0001 14L26 17.7876L25.2317 18.3542L23.989 16.785L22.531 17.8602L23.7738 19.4294L22.9999 20L20 16.2123L20.7739 15.6416L21.9653 17.1459L23.4233 16.0707Z" fill="white"/>
<path d="M27.205 14.6532L27.7159 15.6754L29.5704 14.6813L30 15.5407L27.2779 17L25 12.4424L27.6906 11L28.1202 11.8595L26.297 12.8368L26.782 13.8069L28.4479 12.9138L28.8709 13.7602L27.205 14.6532Z" fill="white"/>
<path d="M36 12.9465L35.0128 13.241L33.5687 12.0026L32.873 12.2101L33.3828 13.7273L32.4684 14L31 9.6297L32.8553 9.07631C33.2837 8.94846 33.6957 8.98126 34.0912 9.17469C34.4866 9.36812 34.7515 9.6646 34.8858 10.0641C34.9767 10.3347 34.9796 10.6109 34.8944 10.8928C34.8079 11.1704 34.6495 11.4077 34.4192 11.6047L36 12.9465ZM33.1259 9.88169L32.185 10.1623L32.6192 11.4547L33.5601 11.174C33.7324 11.1226 33.8593 11.016 33.9411 10.8543C34.0214 10.6883 34.0316 10.5159 33.9714 10.337C33.9112 10.1579 33.7983 10.0245 33.6327 9.93651C33.4671 9.84854 33.2981 9.8303 33.1259 9.88169Z" fill="white"/>
<path d="M53.5837 10.9397L54.676 14L53.6075 13.6727L52.5793 10.8742L51.9274 13.1579L51 12.8738L52.3912 8L53.3186 8.28414L52.7045 10.4356L54.9315 8.77832L56 9.10572L53.5837 10.9397Z" fill="white"/>
<path d="M61.2357 15.8863C60.5851 16.085 59.9531 16.0233 59.3396 15.7011C58.7262 15.3788 58.3169 14.8935 58.1119 14.2453C57.9151 13.5911 57.9779 12.9575 58.3004 12.3444C58.625 11.7274 59.1106 11.3184 59.7571 11.1175C60.4098 10.9147 61.0429 10.9744 61.6563 11.2967C62.2698 11.619 62.678 12.1062 62.8809 12.7584C63.086 13.4067 63.0261 14.0393 62.7016 14.6564C62.377 15.2736 61.8883 15.6835 61.2357 15.8863ZM58.9982 13.9851C59.1207 14.3789 59.3777 14.6786 59.7693 14.8843C60.1608 15.0899 60.5535 15.1316 60.9476 15.0091C61.3478 14.8847 61.654 14.6209 61.8662 14.2175C62.0783 13.8142 62.1222 13.4126 61.9977 13.0126C61.8733 12.6126 61.6173 12.3109 61.2299 12.1074C60.8424 11.9039 60.4486 11.8642 60.0484 11.9886C59.6481 12.113 59.3419 12.3768 59.1298 12.7801C58.9176 13.1834 58.8737 13.5851 58.9982 13.9851Z" fill="white"/>
<path d="M63.9102 18.5117C63.5068 18.2099 63.2374 17.8698 63.1021 17.4914C62.9667 17.1132 62.966 16.7302 63.0998 16.3426L64.1142 16.4785C63.9427 16.9946 64.092 17.4284 64.562 17.7802C64.7814 17.9443 64.9768 18.0304 65.1486 18.0385C65.3203 18.0465 65.4589 17.9877 65.5644 17.8619C65.6792 17.725 65.703 17.5711 65.6358 17.4005C65.5717 17.226 65.4104 16.9699 65.152 16.632C64.8786 16.2588 64.6955 15.926 64.6027 15.6337C64.4962 15.2591 64.5904 14.8959 64.8852 14.5444C65.183 14.1893 65.5485 14.0081 65.9815 14.0011C66.4208 13.9865 66.8284 14.12 67.2045 14.4013C67.5334 14.6475 67.7615 14.9418 67.8889 15.2839C68.0163 15.6262 68.0341 15.9887 67.9424 16.3717L66.9491 16.2335C67.0638 15.7775 66.9411 15.4146 66.5807 15.145C66.4163 15.0218 66.254 14.9607 66.094 14.9614C65.9372 14.9584 65.8107 15.0143 65.7145 15.1289C65.6121 15.251 65.5812 15.3906 65.6218 15.5474C65.6741 15.713 65.8134 15.9497 66.0398 16.2576L66.2472 16.5574C66.2858 16.6103 66.3475 16.7076 66.4325 16.8496C66.5159 16.9782 66.5695 17.0815 66.5932 17.1596C66.6921 17.4142 66.7252 17.6255 66.6925 17.7938C66.664 18.0253 66.5613 18.2466 66.3844 18.4574C66.0834 18.8163 65.7055 18.9972 65.2505 19C64.7957 19.0028 64.3489 18.84 63.9102 18.5117Z" fill="white"/>
<path d="M70.9592 21.3455L72.3789 20.065L73 20.7759L69.4253 24L68.8042 23.2892L70.2852 21.9535L69.1065 20.6044L67.6256 21.9402L67 21.2242L70.5747 18L71.2003 18.716L69.7806 19.9964L70.9592 21.3455Z" fill="white"/>
<path d="M73.3291 25.262L72.3506 25.8204L73.4788 27.5305L72.6561 28L71 25.4899L75.3631 23L77 25.4811L76.1772 25.9506L75.0681 24.2695L74.1394 24.7995L75.1529 26.3357L74.3426 26.7981L73.3291 25.262Z" fill="white"/>
<path d="M75.5359 33L75.1065 32.0827L76.4558 30.618L76.1532 29.9716L74.3977 30.5683L74 29.7188L79.0573 28L79.8641 29.7238C80.0505 30.1218 80.0451 30.5161 79.8482 30.9065C79.6514 31.2968 79.3218 31.5706 78.8594 31.7277C78.5463 31.8341 78.2193 31.8573 77.8786 31.7971C77.5426 31.7352 77.2486 31.6021 76.9965 31.3975L75.5359 33ZM78.9321 30.0404L78.5229 29.1663L77.0275 29.6745L77.4366 30.5487C77.5115 30.7088 77.6481 30.8217 77.8464 30.8876C78.0495 30.9517 78.2547 30.9486 78.4617 30.8782C78.6688 30.8078 78.8177 30.6906 78.9085 30.5266C78.9991 30.3626 79.007 30.2005 78.9321 30.0404Z" fill="white"/>
<path d="M7.5 47C8.32843 47 9 46.3284 9 45.5C9 44.6716 8.32843 44 7.5 44C6.67157 44 6 44.6716 6 45.5C6 46.3284 6.67157 47 7.5 47Z" fill="white"/>
<path d="M80.5 47C81.3284 47 82 46.3284 82 45.5C82 44.6716 81.3284 44 80.5 44C79.6716 44 79 44.6716 79 45.5C79 46.3284 79.6716 47 80.5 47Z" fill="white"/>
<path d="M46.5662 44.7171L56 56H51.589L42.7026 45.5343V56H39V34H42.7026V43.8685L51.2671 34H55.678L46.5662 44.7171Z" fill="white"/>
</svg>
