<svg width="90" height="90" viewBox="0 0 90 90" fill="none" xmlns="http://www.w3.org/2000/svg">
<path d="M89 44.5C89 69.0767 69.0766 89 44.5 89C19.9233 89 0 69.0767 0 44.5C0 19.9233 19.9233 0 44.5 0C69.0766 0 89 19.9233 89 44.5ZM17.2645 44.5C17.2645 59.5417 29.4582 71.7355 44.5 71.7355C59.5417 71.7355 71.7355 59.5417 71.7355 44.5C71.7355 29.4582 59.5417 17.2646 44.5 17.2646C29.4582 17.2646 17.2645 29.4582 17.2645 44.5Z" fill="white" fill-opacity="0.3"/>
<path d="M35.4211 37C34.5516 37 33.8428 37.6524 33.8428 38.4529V49.3976C33.8428 50.3285 33.0107 51.0943 31.9994 51.0943C30.9789 51.0943 30.156 50.3376 30.156 49.3976C30.156 48.5886 29.4473 47.9448 28.5776 47.9448C27.7087 47.9448 27 48.5885 27 49.3976C27 51.9379 29.2402 54 32 54C34.7599 54 37 51.9379 37 49.3976L36.9994 38.4529C37.0093 37.6524 36.3 37 35.4211 37Z" fill="white"/>
<path d="M52.5811 41.6647C52.1055 41.4971 51.576 41.5678 51.1724 41.8583C50.76 42.1401 50.5354 42.6155 50.5535 43.1087L50.6968 46.2869C50.7325 47.0969 51.4415 47.7307 52.2575 47.6957C53.0828 47.6607 53.7286 46.9649 53.693 46.164L53.6573 45.3098C56.636 46.7272 57.9544 48.1975 58.5378 49.2188H47.4941V36.4702C47.4941 35.6602 46.8213 35 45.996 35C45.1705 34.9994 44.4978 35.6602 44.4978 36.4702V41.3129C42.5692 39.0496 40.4879 37.6323 40.3439 37.5266C39.6618 37.0691 38.7295 37.2447 38.2626 37.9141C37.7965 38.5836 37.9667 39.4987 38.6481 39.9568C38.7026 39.9918 43.2237 43.0736 44.4979 47.1055V49.3423C44.4979 50.2844 43.7082 51.0595 42.7482 51.0595C41.7795 51.0595 40.9985 50.2936 40.9985 49.3423C40.9985 48.5237 40.3258 47.872 39.5005 47.872C38.6756 47.872 38.0029 48.5237 38.0029 49.3423C38.0029 51.9132 40.1293 54 42.7488 54C44.2825 54 45.6556 53.2777 46.5167 52.1687H60.4933C61.2648 52.1687 61.9106 51.5877 61.9913 50.839C62.0364 50.2667 62.2336 45.2219 52.5811 41.6647Z" fill="white"/>
<path d="M75.3825 65.7393L77.2035 67.0574L76.5851 68L72 64.6811L72.6183 63.7385L74.518 65.1135L75.6915 63.3245L73.792 61.9495L74.4149 61L79 64.3189L78.3771 65.2685L76.5561 63.9503L75.3825 65.7393Z" fill="white"/>
<path d="M67 69.4526L67.8301 68.6703L68.7271 69.1407L70.2712 67.6856L69.839 66.7771L70.6636 66L73 71.1081L72.0537 72L67 69.4526ZM71.6854 70.6866L70.7081 68.621L69.6456 69.6224L71.6854 70.6866Z" fill="white"/>
<path d="M67.0394 76L64.4584 72.4055L62.5999 73.5085L62 72.6732L64.8191 71L68 75.4298L67.0394 76Z" fill="white"/>
<path d="M56 75.896L57.0581 75.4664L57.7248 76.2117L59.6929 75.4126L59.6186 74.4267L60.6696 74L61 79.5103L59.7938 80L56 75.896ZM59.9257 78.6643L59.7618 76.4247L58.4076 76.9747L59.9257 78.6643Z" fill="white"/>
<path d="M54.0034 83L53.1309 78.3274L51.2028 78.7946L51 77.7087L53.9247 77L55 82.7585L54.0034 83Z" fill="white"/>
<path d="M30.829 78.6476L30.0055 80.7722L29 80.3496L31.0737 75L32.0791 75.4226L31.22 77.6389L33.1282 78.4409L33.9872 76.2247L35 76.6503L32.9263 82L31.9136 81.5743L32.7371 79.4497L30.829 78.6476Z" fill="white"/>
<path d="M24.4999 71L25.5195 71.6135L25.2341 72.5583L27.1306 73.6994L27.9871 73.0981L29 73.7075L24.1624 77L23 76.3007L24.4999 71ZM24.2984 75.6729L26.247 74.3108L24.9418 73.5256L24.2984 75.6729Z" fill="white"/>
<path d="M18 73.2602L21.3778 70.1533L19.7577 68.722L20.5427 68L23 70.1711L18.8373 74L18 73.2602Z" fill="white"/>
<path d="M16.1908 63L16.8273 63.9912L16.2433 64.8527L17.4272 66.6964L18.3677 66.3899L19 67.3744L13.7256 69L13 67.87L16.1908 63ZM14.3226 67.6948L16.4601 67.0035L15.6454 65.7348L14.3226 67.6948Z" fill="white"/>
<path d="M10 62.0472L13.7225 60.2589L12.9246 58.4156L13.7897 58L15 60.7962L10.4124 63L10 62.0472Z" fill="white"/>
<path d="M14.5858 25.2464L12.7285 23.9687L13.3235 23L18 26.2174L17.4051 27.186L15.4676 25.8531L14.3385 27.6913L16.2759 29.0242L15.6765 30L11 26.7827L11.5993 25.8069L13.4566 27.0846L14.5858 25.2464Z" fill="white"/>
<path d="M22 20.4298L21.1968 21.2388L20.2937 20.7891L18.7998 22.2938L19.2529 23.1964L18.4551 24L16 18.9222L16.9156 18L22 20.4298ZM17.3162 19.3116L18.3412 21.3642L19.3693 20.3287L17.3162 19.3116Z" fill="white"/>
<path d="M21.9321 14L24.581 17.5711L26.3844 16.4121L27 17.242L24.2644 19L21 14.599L21.9321 14Z" fill="white"/>
<path d="M32 12.9952L30.9727 13.4495L30.2991 12.7234L28.3883 13.5683L28.4865 14.5488L27.466 15L27 9.51779L28.1712 9L32 12.9952ZM28.076 10.3341L28.2945 12.5615L29.6095 11.9801L28.076 10.3341Z" fill="white"/>
<path d="M33.964 7L34.9141 11.6491L36.7792 11.1258L37 12.2062L34.1709 13L33 7.27048L33.964 7Z" fill="white"/>
<path d="M57.1861 10.3182L57.9672 8.15454L59 8.55196L57.0332 14L56.0004 13.6025L56.8152 11.3455L54.8552 10.5913L54.0404 12.8483L53 12.448L54.9669 7L56.0072 7.40031L55.2261 9.56398L57.1861 10.3182Z" fill="white"/>
<path d="M64.6207 17L63.5737 16.4085L63.8379 15.4588L61.8905 14.3586L61.04 14.9771L60 14.3895L64.8065 11L66 11.6743L64.6207 17ZM64.7034 12.3285L62.7682 13.7295L64.1084 14.4866L64.7034 12.3285Z" fill="white"/>
<path d="M71 15.7148L67.6529 18.8811L69.3459 20.2642L68.5681 21L66 18.902L70.1249 15L71 15.7148Z" fill="white"/>
<path d="M71.9191 26L71.2576 25.0382L71.8223 24.1702L70.592 22.381L69.657 22.7105L69 21.755L74.246 20L75 21.0965L71.9191 26ZM73.679 21.307L71.5537 22.0503L72.4003 23.2814L73.679 21.307Z" fill="white"/>
<path d="M79 25.9248L75.2984 27.7796L76.1462 29.5689L75.286 30L74 27.2858L78.5618 25L79 25.9248Z" fill="white"/>
<path d="M7.5 47C8.32843 47 9 46.3284 9 45.5C9 44.6716 8.32843 44 7.5 44C6.67157 44 6 44.6716 6 45.5C6 46.3284 6.67157 47 7.5 47Z" fill="white"/>
<path d="M80.5 47C81.3284 47 82 46.3284 82 45.5C82 44.6716 81.3284 44 80.5 44C79.6716 44 79 44.6716 79 45.5C79 46.3284 79.6716 47 80.5 47Z" fill="white"/>
</svg>
